 http://www.imdb.com/title/tt0044741/

Source: Ikiru.1952.720p.BluRay.x264.AC3.EA Thanks!

Subs: Arabic, English, Farsi-Persian, French, Hungarian, Portuguese, Spanish and Vietnamese.

Sample and Screens included.

General
Complete name                            : Ikiru-720p MP4 AAC x264 BRRip 1952-CC.mp4
Format                                   : MPEG-4
Format profile                           : Base Media
Codec ID                                 : isom
File size                                : 2.88 GiB
Duration                                 : 2h 22mn
Overall bit rate mode                    : Variable
Overall bit rate                         : 2 879 Kbps
Encoded date                             : UTC 2013-01-28 18:16:14

Video
ID                                       : 1
Format                                   : AVC
Format/Info                              : Advanced Video Codec
Format profile                           : High@L4.1
Format settings, CABAC                   : Yes
Format settings, ReFrames                : 5 frames
Codec ID                                 : avc1
Codec ID/Info                            : Advanced Video Coding
Duration                                 : 2h 22mn
Bit rate                                 : 2 589 Kbps
Maximum bit rate                         : 9 233 Kbps
Width                                    : 960 pixels
Height                                   : 720 pixels
Display aspect ratio                     : 4:3
Frame rate mode                          : Variable
Frame rate                               : 23.976 fps
Minimum frame rate                       : 23.810 fps
Maximum frame rate                       : 24.390 fps
Color space                              : YUV
Chroma subsampling                       : 4:2:0
Bit depth                                : 8 bits
Scan type                                : Progressive
Bits/(Pixel*Frame)                       : 0.156
Stream size                              : 2.58 GiB (90%)
Writing library                          : x264 core 112

Audio
ID                                       : 2
Format                                   : AAC
Format/Info                              : Advanced Audio Codec
Format profile                           : LC
Codec ID                                 : 40
Duration                                 : 2h 22mn
Bit rate mode                            : Variable
Bit rate                                 : 288 Kbps
Maximum bit rate                         : 334 Kbps
Channel(s)                               : 2 channels
Channel positions                        : Front: L R
Sampling rate                            : 48.0 KHz
Compression mode                         : Lossy
Delay relative to video                  : 83ms
Stream size                              : 300 MiB (10%)
Language                                 : Japanese

Enjoy...

Requested by DreamExtractor

Coming soon: Apocalypse Hitler, Cruel Intentions and more...